<?xml version="1.0" encoding="UTF-8"?><svg id="Layer_2" xmlns="http://www.w3.org/2000/svg" viewBox="0 0 1570.97 137.74"><defs><style>.cls-1{fill:#f79421;}.cls-2{fill:#d7df28;}.cls-3{fill:#e90c8b;}.cls-4{fill:#cbe5f6;}.cls-5{fill:#74d1f6;}.cls-6{fill:#0095d2;}.cls-7{fill:#fff;}.cls-8{fill:#1c75bc;}.cls-9{fill:#da205e;}.cls-10{fill:none;stroke:#fff;stroke-miterlimit:10;stroke-width:2.19px;}.cls-11{fill:#66318f;}</style></defs><g id="Layer_1-2"><path class="cls-6" d="M88.61,95.56c0,22.1-17.92,40.02-40.02,40.02S8.58,117.66,8.58,95.56s17.92-40.02,40.02-40.02,40.02,17.92,40.02,40.02Z"/><path class="cls-4" d="M35.52,51.22c19.32-5.3,34.81,2.34,39.96,8.83,0-33.12-16.83-54.09-31.9-58.31C18.62-5.24,1.75,9.98.17,25.52c-1.93,18.82,13.03,31.82,35.35,25.71Z"/><path class="cls-5" d="M86.22,22.69h64.63c3.25,0,5.88,2.85,5.88,6.33v60.68c0,3.52-2.63,6.35-5.88,6.35h-41.84s-5.65,10.75-17.22,13.38c1.23-3.49,2.26-6.16,2.95-13.25-6.44-.04-8.52-.12-8.52-.12-3.24,0-5.89-2.83-5.89-6.35V29.01c0-3.47,2.65-6.33,5.89-6.33Z"/><path class="cls-7" d="M338.31,37.8c4.33,2.18,6.5,5.12,6.5,8.87,0,1.19-.22,2.44-.67,3.69l-20.64,45.2h-20.4l19.51-42.73c.53-1.12.78-2.24.78-3.36,0-3.67-2.51-5.5-7.51-5.5h-23.33l-23.43,51.59h-20.97l23.55-51.59h-34.09l-23.44,51.59h-20.86l27.48-60.33h105.96c4.26,0,8.11.86,11.55,2.58Z"/><path class="cls-7" d="M360.4,80.75c-.53,2.76,1.53,4.37,6.17,4.82h70.31l-4.49,9.98h-80.17c-9.57,0-14.13-2.88-13.68-8.63l16.82-36.78c2.84-4.94,7.59-8.79,14.24-11.55,5.38-2.24,10.5-3.37,15.36-3.37l72.43-.11-12.78,28.1c-.9,1.96-2.24,3.87-4.04,5.74-3.14,3.3-7.59,4.95-13.35,4.95h-63.69l-3.14,6.84ZM379.18,46.44c-2.8,1.65-4.8,3.78-6,6.39l-5.6,12.23h49c3.43,0,6.2-.48,8.3-1.47,2.24-1.93,3.77-3.81,4.6-5.6l6.28-14.02h-47.99c-2.91,0-5.78.82-8.58,2.47Z"/><path class="cls-7" d="M541.27,95.56h-79.83c-9.79,0-14.47-2.88-14.02-8.63l16.71-36.56c2.84-4.93,7.66-8.81,14.46-11.66,5.53-2.32,10.73-3.48,15.59-3.48h53.59l8.3-18.36,22.99-4.51-37.8,83.21ZM524.78,85.57l18.96-41.6h-46.76c-2.99,0-5.89.82-8.69,2.47-2.8,1.65-4.81,3.78-6,6.39l-12.79,27.92c-.52,2.76,1.57,4.37,6.28,4.82h48.99Z"/><path class="cls-7" d="M552.7,95.56l26.34-57.84,22.94-4.38-28.33,62.22h-20.95ZM582.65,29.95l5.94-13.11,22.99-4.49-6.06,13.24-22.87,4.37Z"/><path class="cls-7" d="M698.14,37.91c4.19,2.17,6.28,5.16,6.28,8.97,0,1.21-.22,2.47-.67,3.82l-20.41,44.85h-79.16c-9.57,0-14.36-2.88-14.36-8.63,0-1.12.15-2.02.45-2.7l7.97-17.61c3.14-6.88,9.86-10.32,20.18-10.32h62.8l1.56-3.48c.53-1.19.8-2.28.8-3.25,0-1.87-.87-3.29-2.58-4.26-1.43-.82-3.15-1.24-5.16-1.24h-67.28l4.04-8.86h74.12c4.19,0,8,.9,11.44,2.69ZM667.86,85.47l9.31-20.53h-47.77c-3.51,0-5.87.19-7.06.57-2.24.68-3.96,2.33-5.16,4.96l-4.6,10.15c-.67,3.24,1.31,4.85,5.94,4.85h49.33Z"/><path class="cls-7" d="M754.38,23.68c2.65-1.57,5.44-2.36,8.35-2.36h29.38l3.93-8.98-36.11.12c-5.01,0-10.43,1.15-16.26,3.47-7.32,2.91-12.41,6.8-15.25,11.66l-3.47,7.62h-23.08c.23.12.46.2.7.31,4.04,2.1,6.18,4.94,6.63,8.43h11.82l-23.55,51.59h20.97l23.55-51.59h34.35l4.03-8.85h-34.35c.45-1.1,1.24-2.82,2.36-5.16,1.35-2.61,3.35-4.7,6-6.27Z"/><path class="cls-7" d="M869.59,37.91c4.19,2.17,6.28,5.16,6.28,8.97,0,1.21-.23,2.47-.67,3.82l-20.41,44.85h-79.17c-9.57,0-14.36-2.88-14.36-8.63,0-1.12.15-2.02.45-2.7l7.96-17.61c3.14-6.88,9.87-10.32,20.18-10.32h62.79l1.57-3.48c.52-1.19.78-2.28.78-3.25,0-1.87-.86-3.29-2.58-4.26-1.42-.82-3.14-1.24-5.15-1.24h-67.28l4.04-8.86h74.12c4.19,0,8,.9,11.44,2.69ZM839.31,85.47l9.31-20.53h-47.77c-3.51,0-5.87.19-7.07.57-2.24.68-3.96,2.33-5.15,4.96l-4.6,10.15c-.67,3.24,1.31,4.85,5.94,4.85h49.34Z"/><path class="cls-7" d="M977.69,65.84c0,1.34-.34,2.77-1.02,4.26l-6.5,14.13c-5.61,7.55-13.9,11.33-24.89,11.33h-78.49l4.6-10.09h68.85c5.23,0,8.86-1.61,10.88-4.82l3.03-6.62c.59-1.28.89-2.25.89-2.92,0-1.2-.79-1.98-2.35-2.36-.67-.15-2.43-.22-5.27-.22h-68.29l8.19-17.83c2.84-4.95,7.92-8.9,15.25-11.89,5.9-2.39,11.36-3.59,16.37-3.59l71.74-.11-7.96,8.97h-61.09c-3.07,0-5.95.78-8.63,2.35-2.92,1.57-4.98,3.7-6.17,6.39l-3.14,6.84h63.02c7.32,0,10.99,2.06,10.99,6.16Z"/><path class="cls-7" d="M1013.68,78.06c-.6,1.35-.89,2.47-.89,3.36,0,3.59,2.43,5.39,7.29,5.39h52.03l4.03,8.75h-66.94c-4.19,0-7.92-.89-11.21-2.69-4.11-2.16-6.17-5.16-6.17-8.97,0-1.21.23-2.43.67-3.7l16.37-35.88h-16.93l3.93-8.63h16.93l8.3-18.39,22.31-4.49-10.43,22.88h58.76l-3.93,8.63h-58.75l-15.36,33.75Z"/><path class="cls-7" d="M1120.31,18.78c0-3.24,1.06-5.97,3.19-8.19,2.13-2.22,4.72-3.33,7.76-3.33s5.62,1.11,7.75,3.33c2.13,2.22,3.2,4.95,3.2,8.19s-1.07,5.99-3.2,8.22c-2.13,2.23-4.72,3.35-7.75,3.35s-5.63-1.12-7.76-3.35c-2.13-2.23-3.19-4.97-3.19-8.22ZM1121.63,18.77c0,2.87.94,5.29,2.82,7.27,1.88,1.98,4.16,2.97,6.82,2.97s4.92-.99,6.8-2.97c1.88-1.98,2.82-4.4,2.82-7.27s-.94-5.25-2.82-7.22-4.15-2.95-6.8-2.95-4.94.98-6.82,2.95c-1.88,1.97-2.82,4.38-2.82,7.22ZM1128.77,19.66v5.49h-1.51v-13.11h3.98c1.51,0,2.67.32,3.49.97.81.65,1.22,1.6,1.22,2.85,0,.7-.19,1.3-.56,1.81s-.91.92-1.61,1.23c.7.26,1.2.66,1.51,1.2.31.55.46,1.2.46,1.97v.86c0,.41.02.79.06,1.13s.11.62.2.83v.25h-1.57c-.1-.22-.16-.53-.19-.95s-.03-.84-.03-1.27v-.83c0-.86-.19-1.49-.59-1.87-.39-.38-1.04-.57-1.96-.57h-2.9ZM1128.77,18.25h2.79c.81,0,1.49-.21,2.04-.62.55-.42.83-1,.83-1.74,0-.87-.24-1.5-.71-1.88-.47-.38-1.3-.57-2.48-.57h-2.47v4.81Z"/><path class="cls-7" d="M1253.08,9.94h9.27l10.02,30.24c1.08,3.17,2.17,8.1,2.17,8.1,0,0,1.42-4.85,2.76-8.1l13.03-30.82h1.09l13.11,30.82c1.34,3.17,2.67,8.1,2.67,8.1,0,0,1.17-4.93,2.25-8.1l10.02-30.24h8.6l-19.63,57.38h-1.08l-14.12-33.83c-1.17-2.76-2.34-6.93-2.34-6.93,0,0-1.34,4.18-2.51,6.93l-14.45,33.83h-1.09l-19.79-57.38Z"/><path class="cls-7" d="M1392.89,9.36h.92l27.14,31.74,26.9-31.74h.92v57.38h-8.43v-29.48c0-3.17.33-8.18.33-8.18,0,0-2.76,4.26-5.09,6.85l-14.28,17.21h-1l-14.28-17.21c-2.17-2.59-5.01-6.85-5.01-6.85,0,0,.33,5.01.33,8.18v29.48h-8.44V9.36Z"/><polygon class="cls-7" points="1458.29 9.94 1494.37 9.94 1494.37 17.71 1467.14 17.71 1467.14 39.76 1491.28 39.76 1491.28 47.36 1467.14 47.36 1467.14 58.97 1495.54 58.97 1495.54 66.74 1458.29 66.74 1458.29 9.94"/><path class="cls-7" d="M1516.08,33.58c-2.25-2.42-5.35-6.35-5.35-6.35,0,0,.59,4.68.59,8.18v31.32h-8.19V9.36h1.17l31.32,33.66c2.17,2.34,5.26,6.35,5.26,6.35,0,0-.58-5.01-.58-8.18V9.94h8.18v57.38h-1.08l-31.32-33.74Z"/><path class="cls-7" d="M1308.6,106.63c0-12.5-8.62-21.9-20.87-21.9s-20.96,9.4-20.96,21.9,8.71,21.9,20.96,21.9,20.87-9.4,20.87-21.9M1257.46,106.63c0-17.51,13.45-30.1,30.27-30.1s30.18,12.59,30.18,30.1-13.45,30.1-30.18,30.1-30.27-12.59-30.27-30.1"/><path class="cls-7" d="M1317.48,77.31h9.57l10.35,31.22c1.12,3.28,2.24,8.37,2.24,8.37,0,0,1.47-5,2.85-8.37l13.45-31.82h1.12l13.54,31.82c1.38,3.28,2.76,8.37,2.76,8.37,0,0,1.21-5.09,2.33-8.37l10.35-31.22h8.88l-20.27,59.24h-1.12l-14.57-34.92c-1.21-2.85-2.42-7.16-2.42-7.16,0,0-1.38,4.31-2.59,7.16l-14.92,34.92h-1.12l-20.44-59.24Z"/><path class="cls-7" d="M1413.46,101.72c-2.33-2.5-5.52-6.55-5.52-6.55,0,0,.6,4.83.6,8.45v32.34h-8.45v-59.24h1.21l32.34,34.75c2.24,2.41,5.43,6.55,5.43,6.55,0,0-.6-5.17-.6-8.45v-32.25h8.45v59.24h-1.12l-32.34-34.84Z"/><polygon class="cls-7" points="1456.74 77.31 1494 77.31 1494 85.33 1465.88 85.33 1465.88 108.1 1490.81 108.1 1490.81 115.95 1465.88 115.95 1465.88 127.93 1495.2 127.93 1495.2 135.95 1456.74 135.95 1456.74 77.31"/><path class="cls-7" d="M1518.57,127.93c15.27,0,22.42-8.8,22.42-21.3s-7.16-21.3-22.42-21.3h-6.38v42.6h6.38ZM1503.05,77.31h16.13c18.8,0,31.3,11.73,31.3,29.32s-12.42,29.32-31.3,29.32h-16.13v-58.64Z"/><path class="cls-1" d="M1343.33,32.08c1.56.56,3.15,1.49,4.72,2.75.06-.07.13-.14.18-.21.57-.67,1.09-1.41,1.53-2.18.56-.98,1.02-2.03,1.35-3.13.11-.37.2-.73.29-1.1l.13-.64c.07-.38.13-.67.17-.96.18-1.45.2-2.99.04-4.58-.17-1.64-.52-3.38-1.06-5.17-.07-.24-.19-.49-.36-.78-.46-.78-1.19-1.35-2.05-1.61-.7-.21-1.34-.21-2.05-.01-.91.27-1.67.89-2.12,1.73-.46.85-.56,1.81-.28,2.73.1.33.18.65.26.96.09.36.17.7.24,1.04.05.26.1.51.14.77.04.22.07.46.1.69.18,1.44.16,2.7-.05,3.87-.1.53-.23,1-.39,1.43-.15.42-.34.81-.56,1.2-.27.46-.58.9-.96,1.32-.3.34-.64.66-1.02.96-.08.07-.17.14-.26.2.34.12.66.24.96.35l1.05.39Z"/><path class="cls-1" d="M1334.42,27.45c2.42,0,4.39-1.97,4.39-4.4s-1.97-4.4-4.39-4.4-4.4,1.97-4.4,4.4,1.97,4.4,4.4,4.4"/><path class="cls-9" d="M1343.86,45.78c.27.46.48.94.66,1.49.14.44.25.9.32,1.36.02.11.03.22.04.33.25-.21.49-.41.72-.6l.93-.77c1.27-1.07,2.86-1.98,4.74-2.72-.03-.09-.06-.18-.09-.27-.3-.83-.68-1.65-1.12-2.42-.57-.98-1.25-1.9-2.03-2.73-.26-.28-.53-.54-.81-.8l-.49-.44c-.29-.25-.51-.44-.75-.62-1.16-.88-2.48-1.66-3.95-2.32-1.5-.67-3.18-1.23-5-1.67-.23-.05-.48-.08-.78-.08-.99.01-1.85.36-2.51.97-.53.5-.86,1.07-1.03,1.77-.22.93-.07,1.89.43,2.7.5.82,1.29,1.39,2.22,1.61.33.08.65.17.97.25.35.1.7.2,1.03.32.25.08.49.17.74.26.21.08.43.17.64.26,1.33.56,2.42,1.21,3.32,1.98.41.35.75.7,1.04,1.05.28.34.53.69.75,1.08"/><path class="cls-9" d="M1336.46,46.98c-.67-.39-1.42-.59-2.19-.59-1.57,0-3.03.84-3.82,2.2-.59,1.01-.74,2.2-.44,3.34.3,1.13,1.03,2.08,2.05,2.67.67.38,1.42.59,2.19.59,1.57,0,3.03-.84,3.82-2.2.59-1.01.74-2.2.44-3.33-.3-1.14-1.03-2.09-2.05-2.67"/><path class="cls-11" d="M1347.41,59.86c.96-.03,1.85-.42,2.5-1.12.24-.25.47-.49.7-.72.26-.25.52-.5.79-.73.2-.17.39-.35.59-.51.16-.14.34-.27.51-.41,1.18-.9,2.29-1.51,3.41-1.91.51-.18.98-.3,1.44-.38.96-.17,1.94-.15,2.93.06.45.1.9.23,1.34.41.1.04.2.08.31.12-.06-.32-.11-.64-.16-.93l-.2-1.17c-.29-1.63-.28-3.47.02-5.46-.09-.02-.19-.04-.28-.06-.87-.16-1.76-.24-2.65-.24-1.13,0-2.27.13-3.38.39-.37.08-.73.19-1.09.3l-.62.21c-.39.14-.66.23-.91.34-1.35.56-2.69,1.32-3.98,2.26-1.34.97-2.67,2.15-3.95,3.5-.17.18-.33.41-.5.7-.44.79-.57,1.71-.37,2.59.17.71.49,1.28,1.01,1.77.66.63,1.54.98,2.45.98h.11Z"/><path class="cls-11" d="M1358.21,60.4c-.77,0-1.53.2-2.19.59-2.1,1.21-2.82,3.91-1.61,6.01.78,1.35,2.25,2.2,3.82,2.2.77,0,1.52-.2,2.19-.59,2.1-1.21,2.82-3.91,1.61-6.01-.78-1.35-2.24-2.2-3.82-2.2"/><path class="cls-3" d="M1373.4,42.04c-1.56-.56-3.15-1.49-4.72-2.75-.06.07-.12.14-.18.21-.57.67-1.09,1.41-1.54,2.18-.56.97-1.02,2.03-1.35,3.13-.11.36-.2.73-.28,1.1l-.13.64c-.08.41-.13.68-.16.95-.19,1.45-.2,2.99-.04,4.58.17,1.64.52,3.38,1.06,5.17.07.25.18.49.36.79.46.78,1.19,1.35,2.05,1.61.71.21,1.35.22,2.04.01.92-.27,1.67-.89,2.13-1.73.45-.84.55-1.81.28-2.73-.1-.33-.18-.65-.27-.96-.09-.36-.17-.71-.24-1.05-.05-.26-.1-.51-.14-.77-.04-.23-.07-.46-.1-.69-.18-1.44-.16-2.7.05-3.87.1-.53.23-1,.39-1.43.15-.41.33-.8.56-1.19.27-.46.58-.9.96-1.32.31-.34.65-.66,1.02-.96.08-.07.17-.14.26-.2-.33-.12-.64-.24-.94-.35l-1.07-.4Z"/><path class="cls-3" d="M1382.31,46.67c-2.42,0-4.4,1.97-4.4,4.4s1.97,4.4,4.4,4.4,4.4-1.97,4.4-4.4-1.97-4.4-4.4-4.4"/><path class="cls-8" d="M1380.57,40.58c.9-.01,1.76-.36,2.42-.97.53-.5.86-1.06,1.03-1.76.22-.93.07-1.89-.43-2.7-.5-.82-1.29-1.39-2.22-1.61-.33-.08-.65-.16-.97-.25-.36-.1-.7-.2-1.03-.32-.25-.08-.49-.17-.73-.26-.21-.08-.43-.16-.64-.25-1.33-.56-2.41-1.21-3.32-1.98-.41-.35-.75-.7-1.05-1.06-.28-.34-.53-.69-.75-1.07-.28-.48-.49-.97-.66-1.5-.14-.43-.25-.89-.32-1.36-.02-.11-.03-.22-.05-.33-.27.22-.52.44-.76.63l-.89.73c-1.27,1.07-2.86,1.98-4.74,2.71.03.09.06.18.09.26.29.83.67,1.64,1.12,2.42.56.97,1.24,1.89,2.03,2.73.26.28.54.54.81.8l.49.43c.29.25.51.44.75.62,1.16.88,2.48,1.66,3.95,2.32,1.51.67,3.2,1.24,5,1.67.23.05.48.08.78.08h.08Z"/><path class="cls-8" d="M1380.27,27.13c2.03,1.17,4.84.41,6.01-1.61,1.21-2.1.49-4.79-1.61-6.01-.67-.38-1.42-.59-2.19-.59-1.57,0-3.03.84-3.82,2.2-.59,1.01-.74,2.2-.44,3.34.31,1.13,1.03,2.08,2.05,2.67"/><path class="cls-2" d="M1355.17,21.54c.29,1.64.28,3.48-.02,5.46.09.02.18.04.27.05,1.97.37,4.06.31,6.04-.15.37-.08.73-.19,1.09-.3l.63-.21c.37-.13.64-.22.91-.34,1.35-.57,2.69-1.33,3.99-2.26,1.33-.96,2.66-2.14,3.95-3.5.17-.18.33-.41.5-.71.44-.79.57-1.71.37-2.58-.17-.71-.49-1.28-1.01-1.78-.66-.63-1.54-.98-2.45-.98-1.07.03-1.95.42-2.61,1.12-.23.25-.46.48-.7.71-.27.26-.53.5-.79.73-.19.17-.39.35-.59.51-.17.14-.36.29-.54.43-1.15.87-2.26,1.49-3.38,1.89-.51.18-.97.3-1.44.38-.96.16-1.93.15-2.93-.06-.45-.1-.9-.23-1.34-.41-.1-.04-.2-.08-.31-.12.06.35.12.69.17,1l.19,1.1Z"/><path class="cls-2" d="M1360.72,13.13c2.1-1.21,2.82-3.91,1.61-6.01-.78-1.36-2.25-2.2-3.82-2.2-.77,0-1.52.2-2.19.59-1.02.58-1.75,1.53-2.05,2.67-.3,1.13-.15,2.32.44,3.34,1.17,2.02,3.98,2.78,6.01,1.61"/><path class="cls-7" d="M1569.3,18.35l-.31-4.96c-.03-.65-.03-1.46-.06-2.35h-.09c-.22.74-.49,1.73-.71,2.51l-1.52,4.68h-1.74l-1.52-4.8c-.15-.62-.4-1.64-.59-2.39h-.09c0,.77-.03,1.58-.06,2.35l-.31,4.96h-1.61l.62-8.43h2.51l1.46,4.12c.22.65.34,1.27.56,2.14h.03c.22-.74.4-1.49.59-2.08l1.46-4.18h2.42l.65,8.43h-1.67ZM1560.19,9.92v1.39h-2.69v7.03h-1.68v-7.03h-2.66v-1.39h7.03Z"/><line class="cls-10" x1="1182.44" y1="3.91" x2="1182.44" y2="137.74"/></g></svg>