<?xml version="1.0" encoding="UTF-8"?><svg id="Layer_2" xmlns="http://www.w3.org/2000/svg" viewBox="0 0 26.91 26.88"><defs><style>.cls-1{fill:#333;}</style></defs><g id="Layer_1-2"><path id="Icon_ionic-ios-search" class="cls-1" d="m26.59,24.93l-7.51-7.58c3.67-4.63,2.9-11.36-1.73-15.03C12.72-1.35,5.99-.58,2.32,4.05c-3.67,4.63-2.9,11.36,1.73,15.03,3.94,3.12,9.51,3.09,13.41-.09l7.46,7.53c.44.46,1.17.48,1.63.04.46-.44.48-1.17.04-1.64Zm-15.92-5.84c-4.67,0-8.45-3.79-8.45-8.45,0-4.67,3.79-8.45,8.45-8.45,4.67,0,8.45,3.79,8.45,8.45,0,2.24-.89,4.39-2.47,5.97-1.58,1.59-3.73,2.48-5.98,2.48Z"/></g></svg>